<svg width="608" height="166" viewBox="0 0 608 166" fill="none" xmlns="http://www.w3.org/2000/svg">
<rect width="608" height="166" fill="#F5F5F5"/>
<path d="M428 80.5C428 117.227 398.227 147 361.5 147C324.773 147 295 117.227 295 80.5C295 43.7731 324.773 14 361.5 14C398.227 14 428 43.7731 428 80.5Z" fill="white" fill-opacity="0.49"/>
<g filter="url(#filter0_d_2_76)">
<path d="M66.432 118H50.304V81.648H22.272V118H6.016V30.832H22.272V67.056H50.304V30.832H66.432V118ZM118.065 104.688H94.641L91.441 118H75.953L98.353 30.832H114.993L136.497 118H121.137L118.065 104.688ZM97.713 91.76H115.121L107.057 56.176H106.161L97.713 91.76ZM205.768 59.248C205.768 62.064 205.213 64.7947 204.104 67.44C202.995 70.0853 201.501 72.3893 199.624 74.352C202.184 76.2293 204.019 78.5333 205.128 81.264C206.237 83.9093 206.792 86.6827 206.792 89.584V94.96C206.792 98.544 206.28 101.787 205.256 104.688C204.232 107.589 202.781 110.021 200.904 111.984C199.112 113.947 196.936 115.44 194.376 116.464C191.901 117.488 189.128 118 186.056 118H146.376V30.832H184.904C187.976 30.832 190.792 31.344 193.352 32.368C195.912 33.392 198.088 34.8427 199.88 36.72C201.757 38.5973 203.208 40.8587 204.232 43.504C205.256 46.1493 205.768 49.0507 205.768 52.208V59.248ZM161.48 67.056H182.216C183.325 67.056 184.392 66.8 185.416 66.288C186.44 65.776 187.336 65.0933 188.104 64.24C188.957 63.3867 189.597 62.4053 190.024 61.296C190.451 60.1013 190.664 58.864 190.664 57.584V56.304C190.664 54.9387 190.451 53.7013 190.024 52.592C189.597 51.4827 188.957 50.5013 188.104 49.648C187.336 48.7093 186.44 47.984 185.416 47.472C184.392 46.96 183.325 46.704 182.216 46.704H161.48V67.056ZM191.816 91.376C191.816 90.096 191.56 88.9013 191.048 87.792C190.621 86.5973 190.024 85.5733 189.256 84.72C188.488 83.8667 187.549 83.184 186.44 82.672C185.416 82.16 184.349 81.904 183.24 81.904H161.48V101.872H183.24C184.349 101.872 185.416 101.616 186.44 101.104C187.549 100.592 188.488 99.9093 189.256 99.056C190.024 98.2027 190.621 97.2213 191.048 96.112C191.56 94.9173 191.816 93.6373 191.816 92.272V91.376ZM262.951 46.96H240.679V30.832H301.095V46.96H278.567V118H262.951V46.96ZM306.965 73.456C307.221 70.7253 307.818 68.1227 308.757 65.648C309.781 63.1733 311.232 60.9973 313.109 59.12C314.986 57.2427 317.333 55.7493 320.149 54.64C322.965 53.4453 326.208 52.848 329.877 52.848H337.557C341.397 52.848 344.725 53.488 347.541 54.768C350.442 56.048 352.832 57.7547 354.709 59.888C356.586 61.936 357.994 64.3253 358.933 67.056C359.872 69.7013 360.341 72.3893 360.341 75.12V118H323.989C321.173 118 318.656 117.488 316.437 116.464C314.218 115.355 312.341 113.947 310.805 112.24C309.354 110.448 308.245 108.357 307.477 105.968C306.794 103.579 306.453 101.019 306.453 98.288C306.453 95.6427 306.837 93.168 307.605 90.864C308.373 88.56 309.482 86.5973 310.933 84.976C312.384 83.2693 314.176 81.9467 316.309 81.008C318.528 79.984 321.002 79.472 323.733 79.472H345.621V78.192C345.621 76.656 345.493 75.248 345.237 73.968C344.981 72.6027 344.512 71.4507 343.829 70.512C343.146 69.5733 342.122 68.848 340.757 68.336C339.392 67.7387 337.557 67.44 335.253 67.44H332.053C328.64 67.44 326.208 67.952 324.757 68.976C323.306 69.9147 322.325 71.408 321.813 73.456H306.965ZM320.149 98.288C320.149 100.507 320.576 102.171 321.429 103.28C322.368 104.304 323.392 104.816 324.501 104.816H345.621V91.76H324.501C323.392 91.76 322.368 92.3147 321.429 93.424C320.576 94.5333 320.149 96.1547 320.149 98.288ZM367.429 52.848H379.461V30.832H394.565V52.848H406.597V67.568H394.565V118H379.461V67.568H367.429V52.848Z" fill="black"/>
<path d="M215.653 30.832H231.909V118H215.653V30.832Z" fill="white"/>
</g>
<line x1="94.5124" y1="107.889" x2="99.5124" y2="85.8892" stroke="white"/>
<line x1="113.489" y1="87.8952" x2="119.489" y2="115.895" stroke="white"/>
<path d="M107 57L121.722 117.75H92.2776L107 57Z" fill="white"/>
<rect x="95" y="68" width="28" height="15" fill="black"/>
<rect width="17" height="17" transform="translate(215 101)" fill="#00A07A"/>
<rect width="17" height="17" transform="translate(215 47)" fill="#01EBB4"/>
<rect width="17" height="17" transform="translate(215 83)" fill="#00BA8D"/>
<rect width="17" height="17" transform="translate(215 65)" fill="#01D7A4"/>
<rect width="17" height="17" transform="translate(215 29)" fill="#00FFC3" fill-opacity="0.89"/>
<defs>
<filter id="filter0_d_2_76" x="2.01599" y="30.832" width="408.581" height="95.168" filterUnits="userSpaceOnUse" color-interpolation-filters="sRGB">
<feFlood flood-opacity="0" result="BackgroundImageFix"/>
<feColorMatrix in="SourceAlpha" type="matrix" values="0 0 0 0 0 0 0 0 0 0 0 0 0 0 0 0 0 0 127 0" result="hardAlpha"/>
<feOffset dy="4"/>
<feGaussianBlur stdDeviation="2"/>
<feComposite in2="hardAlpha" operator="out"/>
<feColorMatrix type="matrix" values="0 0 0 0 0 0 0 0 0 0 0 0 0 0 0 0 0 0 0.25 0"/>
<feBlend mode="normal" in2="BackgroundImageFix" result="effect1_dropShadow_2_76"/>
<feBlend mode="normal" in="SourceGraphic" in2="effect1_dropShadow_2_76" result="shape"/>
</filter>
</defs>
</svg>
